REM DIRINDEX 1\5,1\2\6,1\2\7,1\3\8,1\3\9,1\4\10,1\4\11,1\4\12
REM DIRNAME cjc026,folder01,folder02,folder03,folder04,folder05,folder06,folder07,folder08,folder09,folder10,folder11
TITLE ""
FILE "EJE_DB3000_5th_1A_28.mp3" MP3
  TRACK 01 AUDIO
    TITLE "0:"
    INDEX 01 00:00:00
  TRACK 02 AUDIO
    TITLE "10:cjc026_07653"
    INDEX 01 00:00:11
  TRACK 03 AUDIO
    TITLE "0:"
    INDEX 01 00:01:11
  TRACK 04 AUDIO
    TITLE "11:cjc026_07654"
    INDEX 01 00:01:62
  TRACK 05 AUDIO
    TITLE "0:"
    INDEX 01 00:03:02
  TRACK 06 AUDIO
    TITLE "12:cjc026_07655"
    INDEX 01 00:03:51
  TRACK 07 AUDIO
    TITLE "0:"
    INDEX 01 00:04:48
  TRACK 08 AUDIO
    TITLE "10:cjc026_07656"
    INDEX 01 00:05:24
  TRACK 09 AUDIO
    TITLE "0:"
    INDEX 01 00:06:22
  TRACK 10 AUDIO
    TITLE "11:cjc026_07657"
    INDEX 01 00:06:73
  TRACK 11 AUDIO
    TITLE "0:"
    INDEX 01 00:08:05
  TRACK 12 AUDIO
    TITLE "12:cjc026_07658"
    INDEX 01 00:08:54
  TRACK 13 AUDIO
    TITLE "0:"
    INDEX 01 00:09:51
  TRACK 14 AUDIO
    TITLE "10:cjc026_07659"
    INDEX 01 00:10:27
  TRACK 15 AUDIO
    TITLE "0:"
    INDEX 01 00:11:19
  TRACK 16 AUDIO
    TITLE "11:cjc026_07660"
    INDEX 01 00:11:70
  TRACK 17 AUDIO
    TITLE "0:"
    INDEX 01 00:12:67
  TRACK 18 AUDIO
    TITLE "12:cjc026_07661"
    INDEX 01 00:13:41
  TRACK 19 AUDIO
    TITLE "0:"
    INDEX 01 00:14:33
  TRACK 20 AUDIO
    TITLE "10:cjc026_07662"
    INDEX 01 00:15:09
  TRACK 21 AUDIO
    TITLE "0:"
    INDEX 01 00:16:12
  TRACK 22 AUDIO
    TITLE "11:cjc026_07663"
    INDEX 01 00:16:61
  TRACK 23 AUDIO
    TITLE "0:"
    INDEX 01 00:17:72
  TRACK 24 AUDIO
    TITLE "12:cjc026_07664"
    INDEX 01 00:18:46
  TRACK 25 AUDIO
    TITLE "0:"
    INDEX 01 00:19:52
  TRACK 26 AUDIO
    TITLE "10:cjc026_07665"
    INDEX 01 00:20:26
  TRACK 27 AUDIO
    TITLE "0:"
    INDEX 01 00:21:31
  TRACK 28 AUDIO
    TITLE "11:cjc026_07666"
    INDEX 01 00:22:07
  TRACK 29 AUDIO
    TITLE "0:"
    INDEX 01 00:23:32
  TRACK 30 AUDIO
    TITLE "12:cjc026_07667"
    INDEX 01 00:24:08
  TRACK 31 AUDIO
    TITLE "0:"
    INDEX 01 00:25:13
  TRACK 32 AUDIO
    TITLE "10:cjc026_07668"
    INDEX 01 00:25:64
  TRACK 33 AUDIO
    TITLE "0:"
    INDEX 01 00:26:73
  TRACK 34 AUDIO
    TITLE "11:cjc026_07669"
    INDEX 01 00:27:47
  TRACK 35 AUDIO
    TITLE "0:"
    INDEX 01 00:28:70
  TRACK 36 AUDIO
    TITLE "12:cjc026_07670"
    INDEX 01 00:29:44
  TRACK 37 AUDIO
    TITLE "0:"
    INDEX 01 00:30:54
  TRACK 38 AUDIO
    TITLE "10:cjc026_07671"
    INDEX 01 00:31:27
  TRACK 39 AUDIO
    TITLE "0:"
    INDEX 01 00:32:43
  TRACK 40 AUDIO
    TITLE "11:cjc026_07672"
    INDEX 01 00:33:17
  TRACK 41 AUDIO
    TITLE "0:"
    INDEX 01 00:34:30
  TRACK 42 AUDIO
    TITLE "12:cjc026_07673"
    INDEX 01 00:35:04
  TRACK 43 AUDIO
    TITLE "0:"
    INDEX 01 00:36:19
  TRACK 44 AUDIO
    TITLE "10:cjc026_07674"
    INDEX 01 00:36:68
  TRACK 45 AUDIO
    TITLE "0:"
    INDEX 01 00:37:71
  TRACK 46 AUDIO
    TITLE "11:cjc026_07675"
    INDEX 01 00:38:45
  TRACK 47 AUDIO
    TITLE "0:"
    INDEX 01 00:39:58
  TRACK 48 AUDIO
    TITLE "12:cjc026_07676"
    INDEX 01 00:40:32
  TRACK 49 AUDIO
    TITLE "0:"
    INDEX 01 00:41:36
  TRACK 50 AUDIO
    TITLE "10:cjc026_07677"
    INDEX 01 00:42:10
  TRACK 51 AUDIO
    TITLE "0:"
    INDEX 01 00:43:17
  TRACK 52 AUDIO
    TITLE "11:cjc026_07678"
    INDEX 01 00:43:68
  TRACK 53 AUDIO
    TITLE "0:"
    INDEX 01 00:45:06
  TRACK 54 AUDIO
    TITLE "12:cjc026_07679"
    INDEX 01 00:45:55
  TRACK 55 AUDIO
    TITLE "0:"
    INDEX 01 00:46:62
  TRACK 56 AUDIO
    TITLE "10:cjc026_07680"
    INDEX 01 00:47:38
  TRACK 57 AUDIO
    TITLE "0:"
    INDEX 01 00:48:40
  TRACK 58 AUDIO
    TITLE "11:cjc026_07681"
    INDEX 01 00:49:14
  TRACK 59 AUDIO
    TITLE "0:"
    INDEX 01 00:50:09
  TRACK 60 AUDIO
    TITLE "12:cjc026_07682"
    INDEX 01 00:50:58
  TRACK 61 AUDIO
    TITLE "0:"
    INDEX 01 00:51:60
  TRACK 62 AUDIO
    TITLE "10:cjc026_07683"
    INDEX 01 00:52:34
  TRACK 63 AUDIO
    TITLE "0:"
    INDEX 01 00:53:37
  TRACK 64 AUDIO
    TITLE "11:cjc026_07684"
    INDEX 01 00:54:13
  TRACK 65 AUDIO
    TITLE "0:"
    INDEX 01 00:55:08
  TRACK 66 AUDIO
    TITLE "12:cjc026_07685"
    INDEX 01 00:55:57
  TRACK 67 AUDIO
    TITLE "0:"
    INDEX 01 00:56:61
  TRACK 68 AUDIO
    TITLE "10:cjc026_07686"
    INDEX 01 00:57:37
  TRACK 69 AUDIO
    TITLE "0:"
    INDEX 01 00:58:42
  TRACK 70 AUDIO
    TITLE "11:cjc026_07687"
    INDEX 01 00:59:20
  TRACK 71 AUDIO
    TITLE "0:"
    INDEX 01 01:00:37
  TRACK 72 AUDIO
    TITLE "12:cjc026_07688"
    INDEX 01 01:01:13
  TRACK 73 AUDIO
    TITLE "0:"
    INDEX 01 01:02:18
